<svg width="200" height="200" viewBox="-80 -40 160 80" xmlns="http://www.w3.org/2000/svg">
  <!-- Wings -->
  <path d="M-10,-2 C-20,-38 -70,-42 -72,-8 C-73,12 -58,28 -30,24 C-48,16 -52,-2 -46,-16 C-40,-28 -24,-30 -10,-8 Z" fill="#000000"/>
  <path d="M10,-2 C20,-38 70,-42 72,-8 C73,12 58,28 30,24 C48,16 52,-2 46,-16 C40,-28 24,-30 10,-8 Z" fill="#000000"/>
  <!-- Body -->
  <path d="M0,-16 C-9,-14 -12,-4 -11,6 C-10,16 -6,24 0,28 C6,24 10,16 11,6 C12,-4 9,-14 0,-16 Z" fill="#000000"/>
  <!-- Solar disc -->
  <circle cx="0" cy="-24" r="9" fill="#000000"/>
  <!-- Crescent negative space -->
  <path d="M-3,-32 C3,-28 3,-20 -3,-16 C-8,-20 -8,-28 -3,-32 Z" fill="#FFFFFF"/>
</svg>
